<?xml version="1.0" standalone="no"?>
<!DOCTYPE svg PUBLIC "-//W3C//DTD SVG 20010904//EN"
 "http://www.w3.org/TR/2001/REC-SVG-20010904/DTD/svg10.dtd">
<svg version="1.0" xmlns="http://www.w3.org/2000/svg"
 width="500.000000pt" height="500.000000pt" viewBox="0 0 500.000000 500.000000"
 preserveAspectRatio="xMidYMid meet">

<g transform="translate(0.000000,500.000000) scale(0.100000,-0.100000)"
fill="#000000" stroke="none">
<path d="M2850 3880 c0 -5 5 -10 11 -10 5 0 7 5 4 10 -3 6 -8 10 -11 10 -2 0
-4 -4 -4 -10z"/>
<path d="M2976 3844 c-9 -8 -16 -20 -16 -26 0 -6 -9 -8 -20 -5 -11 3 -27 -1
-34 -8 -9 -10 -26 -12 -50 -8 -33 5 -41 2 -75 -31 -25 -25 -43 -35 -54 -30
-13 5 -17 0 -17 -20 0 -32 -7 -32 -36 -5 -13 13 -41 23 -68 26 -37 5 -54 0
-91 -22 -42 -24 -45 -28 -29 -40 16 -11 15 -14 -12 -29 -16 -10 -22 -15 -13
-13 11 4 15 -1 13 -16 -1 -12 -3 -24 -4 -27 -1 -3 -2 -12 -1 -21 1 -12 -16
-22 -66 -37 -37 -12 -104 -39 -147 -62 -44 -22 -86 -40 -93 -40 -8 0 -12 -4
-9 -9 3 -5 -8 -14 -24 -20 -17 -5 -30 -13 -30 -16 0 -3 6 -3 13 1 6 4 1 -5
-12 -19 -19 -21 -27 -24 -43 -16 -11 6 -17 17 -14 24 5 15 -17 39 -27 28 -4
-3 -7 -2 -7 4 0 6 12 11 26 11 15 0 30 6 35 13 6 11 11 11 21 1 6 -6 17 -12
23 -12 5 0 4 4 -3 8 -16 11 12 72 34 72 8 0 14 9 14 20 0 22 10 26 26 10 5 -5
27 -12 49 -15 l40 -5 -48 21 c-42 19 -46 24 -34 38 8 9 17 25 21 36 6 19 5 19
-8 3 -7 -10 -16 -18 -20 -18 -3 0 -6 8 -7 18 0 15 -1 14 -8 -3 -8 -19 -8 -19
-19 0 -6 11 -12 15 -12 9 0 -5 -7 -19 -16 -30 -15 -19 -16 -19 -9 0 6 20 6 20
-16 0 l-22 -19 6 38 c6 37 5 39 -18 33 -21 -5 -24 -2 -30 34 -7 43 -15 49 -35
25 -7 -8 -16 -13 -20 -10 -9 6 -30 -73 -30 -114 0 -17 -4 -31 -10 -31 -10 0
-23 38 -19 56 5 29 -2 46 -19 42 -14 -4 -18 2 -20 25 -3 38 -9 45 -18 22 -5
-11 0 -31 9 -47 24 -42 23 -98 -2 -98 -10 0 -21 7 -25 15 -3 8 -2 15 2 15 4 0
13 10 21 23 13 19 12 21 -1 9 -13 -10 -16 -4 -21 49 -8 67 -31 115 -43 86 -8
-23 -24 -22 -24 1 0 26 -11 34 -27 20 -12 -10 -14 -9 -11 4 1 9 -1 17 -7 18
-5 0 -13 -19 -17 -42 -10 -59 -16 -86 -23 -97 -3 -5 -1 -12 4 -15 5 -3 7 -23
5 -43 -5 -53 12 -98 42 -112 32 -14 24 -28 -20 -33 -33 -4 -35 -2 -60 53 -14
31 -26 64 -26 72 0 8 -9 26 -21 41 -17 21 -24 24 -35 15 -9 -7 -12 -20 -8 -32
5 -16 3 -19 -10 -14 -10 4 -19 1 -22 -8 -8 -20 -24 -19 -54 5 -38 30 -47 24
-15 -10 33 -34 31 -36 -18 -15 -46 19 -100 19 -140 1 -18 -8 -43 -16 -56 -18
-17 -2 -27 -13 -35 -38 l-11 -34 -125 -2 c-69 -1 -144 -7 -167 -13 l-43 -12 0
-69 c0 -56 3 -70 15 -70 22 0 19 -5 -32 -54 l-48 -45 -3 -313 -3 -314 25 -37
25 -37 -104 0 -105 0 0 -65 0 -65 1868 2 1867 3 3 63 3 62 -586 0 -585 0 0
401 c0 396 0 400 20 394 14 -5 20 -2 20 9 0 9 7 16 15 16 8 0 14 3 13 8 -1 4
6 21 15 39 22 41 21 55 -3 84 -15 19 -19 20 -20 8 0 -15 -12 -17 -52 -10 -5 0
-8 11 -8 22 0 18 2 19 15 9 15 -13 19 -8 16 22 -1 10 3 26 9 38 8 15 6 30 -10
64 -24 54 -24 60 -4 119 15 44 15 50 -3 92 -10 25 -24 45 -31 45 -21 0 -74
-30 -112 -63 l-35 -31 -6 43 c-8 59 -48 81 -83 45z m199 -44 c3 -5 2 -10 -4
-10 -5 0 -13 5 -16 10 -3 6 -2 10 4 10 5 0 13 -4 16 -10z m-28 -35 c0 -8 -4
-15 -8 -15 -11 0 -20 16 -12 24 11 11 20 7 20 -9z m-300 -42 c-9 -9 -19 -14
-22 -11 -3 3 2 13 11 22 9 9 19 14 22 11 3 -3 -2 -13 -11 -22z m-1243 -148 c3
-8 1 -15 -4 -15 -6 0 -10 7 -10 15 0 8 2 15 4 15 2 0 6 -7 10 -15z m366 -146
c0 -4 -19 -13 -41 -19 -35 -10 -44 -9 -58 4 -14 15 -13 16 9 16 14 0 31 4 39
9 15 10 51 3 51 -10z m-884 -14 c4 -9 5 -17 3 -19 -2 -2 -43 -7 -91 -11 -84
-6 -88 -6 -88 13 0 23 12 26 113 30 45 2 59 -1 63 -13z m686 -22 c-6 -3 -10
-9 -6 -14 7 -12 -8 -11 -40 1 -40 15 -31 26 17 21 23 -2 36 -6 29 -8z m48 7
c0 -5 -2 -10 -4 -10 -3 0 -8 5 -11 10 -3 6 -1 10 4 10 6 0 11 -4 11 -10z m950
-56 c0 -30 -4 -64 -10 -74 -7 -13 -6 -21 4 -29 7 -6 12 -22 10 -36 -1 -14 1
-25 6 -25 5 0 7 -8 6 -17 -2 -10 2 -21 8 -25 7 -5 7 -8 -2 -8 -10 0 -10 -3 1
-15 9 -8 17 -19 19 -25 4 -13 77 -20 84 -8 3 5 9 6 13 3 5 -2 22 0 39 5 18 4
34 5 37 0 3 -4 14 -6 25 -3 20 5 20 0 20 -214 l0 -219 -87 -42 c-49 -23 -91
-42 -95 -42 -3 0 -8 45 -10 100 -2 83 -6 101 -22 113 -10 8 -28 12 -40 10 -28
-6 -83 44 -90 81 -6 33 -32 55 -63 56 -13 0 -23 6 -23 14 0 8 -7 17 -16 20
-25 9 -54 7 -54 -5 0 -5 -4 -8 -9 -5 -4 3 -25 -8 -45 -26 -31 -27 -36 -36 -36
-75 0 -42 -1 -45 -22 -38 -78 25 -132 9 -121 -36 8 -29 -15 -49 -58 -49 l-38
0 -3 -117 -3 -118 -37 -3 c-23 -2 -38 1 -38 8 0 7 -6 8 -19 1 -10 -6 -21 -7
-25 -4 -10 11 -7 356 5 439 14 102 41 170 66 166 15 -2 15 -1 3 7 -21 14 1 52
75 127 108 110 249 162 443 163 l102 1 0 -56z m244 40 c9 -24 7 -85 -4 -125
-13 -46 -82 -119 -112 -119 -21 0 -21 1 5 15 71 37 118 137 99 209 l-8 29 -17
-27 c-10 -14 -49 -49 -87 -77 -39 -28 -70 -53 -70 -55 0 -3 4 -3 9 1 16 9 23
-33 10 -57 -13 -22 -13 -22 -25 17 -19 62 -17 69 29 88 23 9 67 39 97 67 61
55 65 57 74 34z m-1127 0 c-3 -3 -12 -4 -19 -1 -8 3 -5 6 6 6 11 1 17 -2 13
-5z m973 -9 c-14 -16 -40 -20 -40 -6 0 10 17 19 39 20 11 1 11 -2 1 -14z
m-1752 -20 c15 -15 -29 -25 -110 -25 -70 0 -88 3 -88 14 0 8 8 16 18 18 27 6
173 0 180 -7z m-16 -80 c-2 -5 9 -15 25 -22 26 -11 25 -12 -29 -13 -88 0 -104
-14 -23 -20 l70 -5 3 -47 3 -48 -150 0 -151 0 0 27 c0 19 14 40 50 73 28 25
50 52 50 59 0 8 21 11 78 9 45 -2 76 -7 74 -13z m688 -50 c0 -9 -6 -12 -15 -9
-8 4 -22 1 -30 -6 -9 -8 -15 -8 -15 -2 0 6 -29 10 -75 9 -41 -1 -75 1 -75 5 0
10 37 15 128 17 66 1 82 -2 82 -14z m-914 -151 c-4 -9 -2 -22 4 -29 8 -9 8
-15 0 -20 -6 -3 -7 -11 -4 -17 10 -16 11 -131 1 -145 -5 -7 -4 -20 2 -32 7
-13 8 -22 1 -26 -7 -4 -7 -13 0 -24 6 -12 5 -22 -1 -28 -8 -8 -7 -17 0 -32 11
-19 9 -21 -14 -21 l-25 0 0 195 c0 192 0 195 21 195 15 0 19 -4 15 -16z m297
-400 c30 -5 37 -11 37 -30 0 -14 8 -25 19 -29 22 -7 40 -67 22 -73 -6 -2 -8
-9 -5 -14 4 -6 3 -8 -3 -5 -5 3 -17 -3 -26 -14 -15 -17 -30 -19 -148 -19 -152
0 -177 9 -209 75 -20 41 -26 95 -13 108 8 9 275 9 326 1z m1324 -151 c-2 -16
-4 -5 -4 22 0 28 2 40 4 28 2 -13 2 -35 0 -50z"/>
<path d="M2745 3320 c-3 -5 -1 -10 4 -10 6 0 11 5 11 10 0 6 -2 10 -4 10 -3 0
-8 -4 -11 -10z"/>
<path d="M2740 3080 c0 -5 5 -10 10 -10 6 0 10 5 10 10 0 6 -4 10 -10 10 -5 0
-10 -4 -10 -10z"/>
<path d="M915 3230 c-3 -5 3 -10 14 -10 12 0 21 5 21 10 0 6 -6 10 -14 10 -8
0 -18 -4 -21 -10z"/>
<path d="M935 3170 c5 -17 2 -20 -22 -21 -24 0 -25 -1 -8 -9 11 -4 31 -6 44
-3 13 4 38 6 54 7 17 1 32 7 35 14 3 9 -6 11 -37 6 -34 -5 -41 -4 -41 10 0 9
-7 16 -16 16 -11 0 -14 -6 -9 -20z"/>
<path d="M1200 2570 c0 -5 5 -10 11 -10 5 0 7 5 4 10 -3 6 -8 10 -11 10 -2 0
-4 -4 -4 -10z"/>
<path d="M3670 3853 c-35 -7 -41 -20 -38 -80 1 -29 -1 -56 -5 -60 -12 -12 -7
-36 10 -48 15 -11 13 -15 -23 -33 -21 -11 -53 -35 -71 -54 -63 -65 -63 -65
-63 -518 0 -260 4 -418 10 -430 17 -32 91 -68 164 -81 87 -15 283 -7 351 15
29 9 64 29 80 46 l30 31 3 400 c2 246 -1 414 -7 437 -18 66 -64 127 -115 151
-45 22 -60 41 -32 41 11 0 13 16 9 83 -3 45 -9 86 -14 92 -10 10 -247 17 -289
8z m241 -33 c10 -6 19 -20 19 -30 0 -18 -7 -20 -75 -20 -61 0 -74 3 -70 15 3
8 7 22 10 30 5 18 85 21 116 5z m19 -80 c10 -7 -13 -10 -75 -9 -59 0 -83 3
-70 9 28 12 127 12 145 0z m-5 -40 c4 -6 -19 -10 -62 -9 -47 0 -62 3 -48 9 28
12 103 12 110 0z m-6 -55 c9 -8 39 -30 66 -48 71 -46 99 -105 103 -219 l4 -87
-39 19 c-21 11 -84 42 -141 70 l-104 50 -68 -30 c-38 -16 -73 -30 -79 -30 -18
0 -20 16 -6 43 13 26 13 56 0 77 -3 5 4 19 15 30 23 23 20 41 -4 21 -10 -9
-15 -8 -19 2 -3 7 3 13 13 14 9 1 40 15 67 32 28 17 61 31 74 31 13 0 35 9 49
20 30 24 48 25 69 5z m0 -349 c64 -30 128 -59 144 -65 15 -6 27 -15 27 -21 0
-5 -1 -10 -3 -10 -8 0 -130 51 -205 85 -76 35 -87 37 -116 27 -55 -20 -64 -12
-16 13 25 13 47 24 49 25 3 0 57 -24 120 -54z m-16 -42 c48 -20 85 -39 82 -42
-7 -7 -94 18 -138 40 -36 18 -42 18 -83 4 -25 -8 -42 -10 -38 -5 10 17 68 49
79 45 6 -2 49 -21 98 -42z m115 -70 c41 -8 62 -33 62 -71 0 -49 -15 -71 -58
-83 -81 -22 -82 -21 -82 80 l0 90 25 -5 c14 -3 37 -8 53 -11z m-253 -51 c27
-100 30 -102 44 -37 20 96 20 95 49 92 22 -3 28 -12 49 -78 12 -41 23 -78 23
-82 0 -15 -41 -8 -46 7 -4 8 -15 15 -25 15 -11 0 -22 -7 -25 -15 -4 -9 -19
-15 -39 -15 -20 0 -35 6 -39 15 -3 8 -18 15 -33 15 -38 0 -51 31 -39 93 8 43
11 47 37 47 25 0 29 -5 44 -57z m-138 31 c-3 -3 -12 -4 -19 -1 -8 3 -5 6 6 6
11 1 17 -2 13 -5z m13 -91 c0 -28 -2 -32 -14 -21 -8 7 -12 17 -9 21 3 4 -2 19
-11 32 -16 24 -16 25 9 13 19 -9 25 -19 25 -45z m448 -58 c-2 -2 -69 -34 -148
-70 -133 -60 -145 -64 -160 -49 -8 9 -10 14 -3 10 7 -4 63 18 125 47 167 79
183 85 187 75 1 -5 1 -11 -1 -13z m-13 -371 c-9 -14 -21 -21 -30 -17 -9 3 -13
8 -11 11 8 8 -45 33 -56 26 -16 -10 -67 16 -61 32 3 9 -2 14 -15 14 -11 0 -22
-4 -24 -10 -4 -13 -53 12 -53 27 0 22 -13 24 -49 9 -20 -8 -36 -14 -37 -13 -5
15 -5 67 0 73 3 5 24 10 46 10 28 1 81 21 170 65 l130 64 3 -134 c2 -107 -1
-138 -13 -157z"/>
<path d="M3986 3144 c-3 -9 -6 -31 -6 -50 0 -27 4 -34 19 -34 22 0 51 25 51
44 0 32 -54 66 -64 40z"/>
<path d="M3718 3145 c-3 -6 -9 -25 -13 -42 -5 -27 -3 -33 10 -33 8 0 18 6 20
13 6 16 -10 74 -17 62z"/>
<path d="M3848 3106 c-4 -18 -1 -26 8 -26 16 0 18 18 5 38 -6 10 -10 7 -13
-12z"/>
<path d="M4050 2841 c0 -6 4 -13 10 -16 6 -3 7 1 4 9 -7 18 -14 21 -14 7z"/>
<path d="M4020 2785 c0 -8 7 -15 15 -15 9 0 12 6 9 15 -4 8 -10 15 -15 15 -5
0 -9 -7 -9 -15z"/>
<path d="M4012 2723 c5 -26 38 -29 38 -4 0 15 -6 21 -21 21 -14 0 -19 -5 -17
-17z"/>
<path d="M1497 3692 c-21 -23 -21 -32 -3 -32 20 0 41 29 29 41 -6 6 -15 3 -26
-9z"/>
<path d="M2210 3570 c-11 -7 -3 -10 30 -9 34 0 40 2 25 9 -27 12 -37 12 -55 0z"/>
<path d="M1054 3529 c-10 -17 13 -36 27 -22 12 12 4 33 -11 33 -5 0 -12 -5
-16 -11z"/>
<path d="M2220 3496 c0 -2 7 -7 16 -10 8 -3 12 -2 9 4 -6 10 -25 14 -25 6z"/>
<path d="M3275 3490 c-3 -5 -1 -10 4 -10 6 0 11 5 11 10 0 6 -2 10 -4 10 -3 0
-8 -4 -11 -10z"/>
<path d="M2145 3480 c-18 -7 -18 -8 8 -15 36 -9 87 2 66 16 -17 11 -47 11 -74
-1z"/>
<path d="M3379 2297 c-31 -16 -51 -36 -66 -67 -21 -41 -23 -57 -23 -230 0
-207 -8 -328 -21 -308 -7 10 -9 10 -9 1 0 -7 -4 -13 -10 -13 -5 0 -10 7 -10
16 0 8 -4 13 -9 9 -5 -3 -11 7 -13 22 -3 25 -7 28 -36 27 -25 -1 -32 2 -30 15
1 9 -1 21 -5 28 -4 6 2 32 13 57 38 89 51 161 57 304 3 80 2 142 -3 142 -5 0
-47 -22 -94 -48 l-85 -47 -3 -53 c-2 -28 -7 -52 -11 -52 -5 0 -28 18 -53 40
l-45 39 -28 -29 c-16 -17 -37 -30 -46 -30 -17 0 -49 -25 -49 -39 0 -4 10 -7
22 -8 12 -1 25 -8 29 -15 9 -15 122 -18 152 -4 14 7 17 3 17 -28 0 -33 -28
-123 -49 -155 -11 -18 -37 -3 -122 71 -31 26 -61 48 -67 48 -5 0 -12 9 -15 21
-3 11 -15 23 -26 26 -12 3 -21 9 -21 13 0 4 -11 15 -25 24 -20 13 -28 14 -45
4 -16 -11 -22 -9 -34 7 -14 19 -16 18 -64 -28 -48 -47 -49 -47 -66 -28 -15 16
-22 18 -42 9 -13 -6 -24 -15 -24 -20 0 -5 -12 -27 -27 -51 -20 -31 -28 -38
-31 -24 -2 9 -8 15 -13 12 -16 -10 -10 5 15 38 18 23 22 37 16 47 -8 12 -10
12 -10 1 0 -7 -11 -26 -24 -41 -20 -25 -26 -27 -41 -16 -16 12 -16 14 9 33 30
24 18 41 -14 21 -22 -14 -21 -15 -66 47 -15 20 -15 20 -34 -5 -42 -53 -81
-116 -87 -140 -3 -14 -11 -28 -17 -32 -6 -4 -7 -10 -3 -14 3 -4 28 10 53 32
26 21 42 40 37 41 -15 5 8 53 25 53 6 0 12 -4 12 -10 0 -5 5 -10 11 -10 5 0 7
5 4 10 -3 6 3 10 14 10 30 0 26 -8 -24 -52 -25 -22 -45 -45 -45 -51 0 -6 10
-1 23 10 24 22 47 37 47 30 0 -11 -39 -46 -67 -61 -18 -9 -33 -20 -33 -24 0
-5 -12 -13 -27 -19 -21 -8 81 -11 400 -12 235 -1 427 -5 427 -9 0 -5 -14 -21
-30 -37 -21 -21 -33 -26 -38 -18 -6 10 -30 11 -52 3 -3 -1 -8 -2 -12 -1 -5 0
-8 -3 -8 -8 0 -12 -24 -8 -43 7 -12 10 -22 9 -51 -9 -28 -16 -36 -27 -36 -50
0 -16 -4 -29 -10 -29 -5 0 -10 18 -10 39 0 46 -9 73 -21 65 -5 -3 -9 -1 -9 4
0 16 -59 19 -81 4 -17 -12 -23 -12 -44 2 -19 12 -25 13 -27 4 0 -7 -2 -17 -2
-23 -1 -5 -7 -19 -14 -30 -11 -19 -12 -19 -9 5 1 17 -3 25 -13 25 -8 0 -18 5
-22 10 -5 6 -8 5 -8 -3 0 -7 -4 -11 -9 -8 -5 3 -26 8 -47 11 -39 5 -68 -9 -58
-29 3 -6 -4 2 -16 17 -21 27 -23 27 -41 11 -15 -14 -24 -15 -43 -6 -28 13 -53
-7 -42 -33 3 -9 2 -13 -4 -10 -6 3 -10 1 -10 -5 0 -6 -4 -8 -10 -5 -6 3 -10
-5 -10 -19 0 -13 5 -26 12 -28 6 -2 8 -9 5 -15 -5 -8 -14 -8 -32 0 -26 13 -34
37 -12 37 17 0 16 58 -1 69 -9 6 -14 71 -19 255 -6 220 -8 246 -22 241 -9 -3
-46 -24 -83 -47 l-68 -40 0 -369 0 -369 43 0 c23 0 107 -3 187 -6 184 -7 506
10 585 32 33 9 107 40 164 69 57 29 109 51 116 49 7 -3 11 -19 8 -41 -3 -32
-2 -35 17 -30 17 4 21 1 20 -16 -4 -41 0 -48 23 -46 24 3 87 -21 87 -33 0 -5
9 -8 21 -8 11 0 18 4 15 8 -3 5 1 9 9 9 8 0 13 -11 13 -28 -1 -20 -5 -26 -17
-22 -9 4 -12 2 -8 -2 4 -5 -3 -15 -15 -22 -21 -12 -19 -13 22 -9 32 4 62 -2
106 -20 73 -29 113 -24 148 17 13 16 27 46 31 69 6 38 9 40 42 40 54 0 99 26
121 70 13 28 22 36 30 28 7 -7 17 -6 33 6 32 22 42 20 27 -5 -7 -11 -28 -27
-45 -34 -25 -11 -33 -20 -33 -39 0 -19 5 -26 20 -26 13 0 20 7 20 20 0 26 6
25 39 -7 55 -55 229 -84 264 -45 10 11 17 35 17 59 0 39 11 53 41 53 14 0 11
-28 -3 -33 -10 -3 -10 -8 -2 -16 19 -21 44 -1 44 34 0 26 5 35 22 41 14 4 25
1 33 -10 18 -24 28 -19 22 10 -2 14 2 31 10 39 7 8 14 17 13 20 -1 19 2 24 16
29 10 4 25 -1 35 -10 16 -15 19 -15 24 -1 4 9 -5 26 -20 41 -16 16 -25 35 -23
49 3 19 9 22 55 22 57 1 85 17 65 37 -9 9 -17 9 -36 -2 -22 -11 -29 -11 -51 4
-38 25 -35 70 8 97 30 20 31 21 6 15 -17 -4 -29 -1 -31 7 -8 21 3 37 24 37 17
0 18 3 8 15 -18 21 -10 32 40 57 47 24 66 58 33 58 -11 0 -28 -7 -39 -15 -27
-20 -61 -18 -74 4 -15 30 -12 59 9 80 17 17 18 20 3 35 -14 13 -14 20 -5 36
14 21 4 33 -17 20 -9 -6 -20 0 -33 17 -11 14 -39 34 -61 44 -37 17 -71 19
-372 19 -326 0 -332 0 -375 -23z m781 -361 l0 -238 -34 -34 -34 -34 -114 0
c-75 0 -118 4 -126 12 -8 8 -12 8 -12 1 0 -14 -101 -15 -117 -1 -19 15 -16 25
8 31 25 7 20 31 -7 33 -73 6 -6 22 96 23 47 1 101 6 121 11 34 10 120 74 117
88 -1 4 4 19 10 33 16 39 8 142 -14 181 -12 21 -39 43 -73 61 -51 25 -62 27
-187 27 -101 0 -134 3 -143 14 -10 11 -7 17 10 30 12 8 26 13 31 10 4 -3 8 -1
8 4 0 18 106 18 128 0 13 -11 14 -11 8 0 -6 10 3 13 41 12 82 -1 245 9 251 15
3 3 12 -5 19 -17 9 -17 12 -88 13 -262z m17 212 c-2 -13 -4 -5 -4 17 -1 22 1
32 4 23 2 -10 2 -28 0 -40z m-2 -475 c-8 -36 -59 -64 -123 -69 -65 -5 -60 1
10 11 32 4 57 15 78 35 l30 28 2 224 3 223 3 -215 c1 -118 0 -225 -3 -237z
m-1590 355 c-9 -42 -11 -44 -29 -29 -14 11 -13 16 1 37 22 34 36 30 28 -8z
m-106 -55 c0 -16 -3 -22 -6 -15 -4 10 -16 3 -43 -23 -23 -23 -40 -33 -44 -26
-10 16 5 38 44 66 45 31 50 31 49 -2z m21 -45 c-6 -13 -20 -29 -31 -36 -17
-11 -19 -9 -19 12 0 14 5 28 11 32 8 4 9 0 4 -15 -10 -31 2 -26 20 10 19 36
31 33 15 -3z m-70 -210 c0 -5 -6 -8 -14 -5 -8 3 -17 1 -20 -6 -2 -7 -5 -5 -5
5 -1 16 18 29 32 21 4 -2 7 -9 7 -15z m904 -107 l28 -29 -52 -17 c-42 -14 -56
-25 -80 -64 -29 -45 -41 -51 -19 -8 12 21 11 21 -8 5 -27 -24 -43 -23 -43 4 0
21 0 21 16 2 15 -18 15 -18 11 4 -3 14 -1 22 6 21 26 -3 37 2 37 16 0 8 5 15
11 15 6 0 9 7 5 15 -3 8 0 14 6 12 5 -1 12 6 13 16 5 26 15 34 15 13 0 -10 6
-16 13 -13 6 2 11 11 9 21 -4 22 0 21 32 -13z m709 -38 c-7 -2 -19 -2 -25 0
-7 3 -2 5 12 5 14 0 19 -2 13 -5z m-175 -30 c-2 -10 -7 -21 -13 -25 -5 -4 -6
-11 -1 -15 4 -4 14 0 21 10 8 11 14 14 17 7 2 -8 12 -8 28 -2 52 18 81 -16 44
-52 -18 -19 -38 -21 -29 -3 4 6 -1 3 -9 -7 -9 -11 -19 -17 -22 -13 -4 4 -1 13
6 21 22 27 6 39 -23 16 -15 -12 -27 -17 -27 -11 0 6 -9 11 -19 11 -23 0 -22
16 4 52 24 32 27 34 23 11z m-495 -210 c-7 -2 -21 -2 -30 0 -10 3 -4 5 12 5
17 0 24 -2 18 -5z"/>
<path d="M3880 2180 c0 -5 7 -10 16 -10 8 0 12 5 9 10 -3 6 -10 10 -16 10 -5
0 -9 -4 -9 -10z"/>
<path d="M3986 2181 c-3 -5 0 -11 8 -14 15 -6 26 1 26 15 0 11 -27 10 -34 -1z"/>
<path d="M4040 2180 c0 -5 5 -10 10 -10 6 0 10 5 10 10 0 6 -4 10 -10 10 -5 0
-10 -4 -10 -10z"/>
<path d="M4106 2151 c-4 -5 -2 -12 3 -15 5 -4 12 -2 15 3 4 5 2 12 -3 15 -5 4
-12 2 -15 -3z"/>
<path d="M4060 2089 c0 -5 5 -7 10 -4 6 3 10 8 10 11 0 2 -4 4 -10 4 -5 0 -10
-5 -10 -11z"/>
<path d="M4075 2050 c3 -5 8 -10 11 -10 2 0 4 5 4 10 0 6 -5 10 -11 10 -5 0
-7 -4 -4 -10z"/>
<path d="M4110 2000 c0 -5 10 -10 23 -10 18 0 19 2 7 10 -19 13 -30 13 -30 0z"/>
<path d="M4115 1949 c-10 -15 1 -23 20 -15 9 3 13 10 10 16 -8 13 -22 13 -30
-1z"/>
<path d="M4110 1890 c0 -5 9 -10 20 -10 11 0 20 5 20 10 0 6 -9 10 -20 10 -11
0 -20 -4 -20 -10z"/>
<path d="M3939 1703 c-1 -5 -1 -11 0 -15 1 -8 -14 -12 -36 -9 -16 2 -17 -15
-3 -24 15 -9 60 22 60 40 0 15 -19 22 -21 8z"/>
<path d="M1028 2293 c-41 -5 -68 -32 -68 -69 0 -31 -21 -44 -88 -54 -145 -20
-161 -52 -162 -316 0 -211 8 -251 55 -272 29 -14 176 -35 360 -52 66 -6 168
-18 227 -27 165 -24 191 -16 313 92 l50 44 1 203 c0 112 -3 217 -6 235 -9 39
-99 132 -160 164 -42 22 -56 24 -205 24 -136 0 -164 3 -185 18 -24 16 -50 18
-132 10z m117 -29 c11 -11 15 -30 13 -58 l-3 -41 -85 -3 c-56 -2 -82 0 -75 7
6 6 42 11 80 13 l70 3 3 31 c4 38 -11 51 -63 57 l-40 4 42 1 c27 1 47 -4 58
-14z m-132 -1 c-7 -2 -15 -20 -19 -38 -3 -19 -15 -41 -25 -51 -10 -9 -19 -22
-19 -28 0 -6 -14 -11 -30 -12 -17 -1 -30 3 -30 7 0 5 7 9 15 9 25 0 75 42 75
63 0 26 18 57 33 56 9 0 9 -2 0 -6z m514 -36 c41 -22 96 -81 109 -119 8 -22
12 -97 11 -223 l-1 -190 -6 200 c-3 124 -9 208 -17 220 -6 11 -25 34 -43 50
l-31 30 -172 0 c-165 0 -172 1 -172 20 0 18 9 21 75 26 107 9 213 3 247 -14z
m-1 -94 c43 -28 49 -64 49 -293 0 -118 -3 -228 -8 -243 -11 -40 -61 -67 -122
-66 -65 1 -241 26 -195 28 20 0 73 -4 120 -10 70 -8 91 -8 125 5 65 25 69 38
73 236 4 204 -6 283 -43 320 -25 24 -29 25 -208 30 l-182 5 135 6 c158 6 226
2 256 -18z m-658 0 c-10 -2 -28 -2 -40 0 -13 2 -5 4 17 4 22 1 32 -1 23 -4z
m574 -24 c63 -17 67 -35 61 -259 -3 -107 -10 -200 -15 -207 -6 -7 -5 -14 2
-18 8 -5 6 -13 -5 -25 -25 -28 -52 -31 -59 -8 -3 15 -10 19 -22 14 -17 -7 -74
13 -74 26 0 4 7 11 16 16 11 6 7 9 -18 9 -18 0 -27 -2 -21 -4 9 -3 10 -10 3
-24 -11 -20 -30 -26 -30 -8 0 5 6 7 13 3 8 -5 7 -2 -2 9 -16 20 -19 19 -24
-13 -3 -21 -10 -24 -57 -27 -61 -5 -416 34 -442 48 -9 5 -22 18 -28 29 -14 25
-13 352 1 383 22 48 39 52 279 57 124 3 261 7 305 8 44 1 97 -3 117 -9z m-492
-518 c85 -11 137 -19 115 -20 -89 -2 -287 27 -304 44 -15 15 -14 16 9 5 14 -6
95 -19 180 -29z m228 -28 c-10 -2 -28 -2 -40 0 -13 2 -5 4 17 4 22 1 32 -1 23
-4z"/>
<path d="M965 2040 c3 -5 8 -10 11 -10 2 0 4 5 4 10 0 6 -5 10 -11 10 -5 0 -7
-4 -4 -10z"/>
<path d="M796 1964 c-21 -21 -20 -36 4 -67 11 -14 20 -31 20 -39 0 -10 -3 -9
-10 2 -12 20 -33 0 -24 -23 7 -20 45 -22 62 -5 9 9 12 9 12 -1 0 -10 13 -12
50 -9 28 3 53 2 55 -2 9 -14 49 -3 56 16 7 18 8 18 8 -2 1 -16 8 -21 31 -22
24 0 30 4 31 21 l0 22 9 -22 c5 -13 14 -23 19 -23 5 0 12 10 14 23 l4 22 2
-22 c0 -13 6 -23 11 -23 6 0 15 10 20 23 9 22 9 22 9 1 1 -18 7 -22 35 -22 28
0 36 4 39 22 4 20 4 20 6 -2 1 -20 6 -23 34 -20 l32 3 3 78 3 77 -36 0 -35 0
-1 -52 c-1 -30 -4 -40 -6 -23 -7 57 -13 75 -28 75 -9 0 -15 -14 -18 -37 l-4
-38 -1 38 -2 37 -70 0 -70 0 -1 -57 c-1 -64 -4 -62 -14 10 -5 36 -10 47 -24
47 -15 0 -20 -12 -27 -72 l-8 -73 -6 68 c-4 42 -12 72 -21 78 -9 6 -15 4 -17
-6 -3 -13 -6 -13 -23 -1 -11 8 -29 12 -40 9 -19 -5 -23 -22 -21 -93 l1 -35 -9
29 c-5 17 -16 34 -25 38 -8 5 -15 16 -15 25 0 14 2 14 20 -2 19 -18 20 -17 20
3 0 30 -34 47 -54 26z m95 -74 l-9 -45 -1 46 c-1 25 2 49 6 53 12 12 13 -6 4
-54z m206 13 c-3 -10 -5 -2 -5 17 0 19 2 27 5 18 2 -10 2 -26 0 -35z m199 -71
c-13 -12 -15 6 -8 63 l7 60 3 -59 c2 -32 1 -61 -2 -64z m-358 71 c-9 -2 -18
-14 -20 -26 -3 -20 -4 -19 -9 6 -6 24 -4 27 20 26 16 -1 19 -3 9 -6z"/>
<path d="M1340 1882 c0 -49 3 -91 6 -95 4 -3 19 4 35 15 26 19 29 28 29 76 0
66 -13 92 -45 92 -25 0 -25 -1 -25 -88z m40 3 c0 -24 -4 -47 -10 -50 -6 -4
-10 15 -10 50 0 35 4 54 10 50 6 -3 10 -26 10 -50z"/>
<path d="M1457 1923 c-12 -11 -8 -23 8 -23 8 0 15 7 15 15 0 16 -12 20 -23 8z"/>
<path d="M842 1762 c2 -9 12 -18 23 -19 101 -9 370 -23 380 -19 7 2 16 2 19
-2 4 -3 18 -8 31 -9 21 -3 24 0 22 19 -3 17 -11 23 -33 24 -16 1 -85 4 -154 8
-286 17 -292 17 -288 -2z"/>
<path d="M1390 1710 c-11 -7 -12 -12 -3 -21 14 -14 46 -4 41 13 -6 16 -20 19
-38 8z"/>
<path d="M2592 2213 c-6 -12 -4 -27 4 -43 11 -21 14 -22 20 -7 9 23 23 12 17
-14 -5 -18 -2 -19 23 -13 16 4 31 9 33 11 6 4 -70 83 -81 83 -4 0 -11 -8 -16
-17z"/>
<path d="M2525 2163 c-45 -10 -47 -12 -30 -30 16 -16 18 -16 27 0 5 10 13 15
19 12 5 -4 9 1 9 9 0 9 -1 15 -2 15 -2 -1 -12 -3 -23 -6z"/>
<path d="M2770 2115 c7 -8 17 -15 22 -15 6 0 5 7 -2 15 -7 8 -17 15 -22 15 -6
0 -5 -7 2 -15z"/>
<path d="M4485 1891 c-7 -12 12 -24 25 -16 11 7 4 25 -10 25 -5 0 -11 -4 -15
-9z"/>
<path d="M3255 1770 c4 -6 11 -8 16 -5 14 9 11 15 -7 15 -8 0 -12 -5 -9 -10z"/>
<path d="M4370 1580 c0 -5 5 -10 10 -10 6 0 10 5 10 10 0 6 -4 10 -10 10 -5 0
-10 -4 -10 -10z"/>
<path d="M2960 1570 c0 -5 5 -10 10 -10 6 0 10 5 10 10 0 6 -4 10 -10 10 -5 0
-10 -4 -10 -10z"/>
<path d="M2965 1530 c-3 -5 -1 -10 4 -10 6 0 11 5 11 10 0 6 -2 10 -4 10 -3 0
-8 -4 -11 -10z"/>
<path d="M2945 1491 c-3 -5 -1 -12 5 -16 5 -3 10 1 10 9 0 18 -6 21 -15 7z"/>
<path d="M2990 1476 c0 -9 5 -16 10 -16 6 0 10 4 10 9 0 6 -4 13 -10 16 -5 3
-10 -1 -10 -9z"/>
<path d="M4105 1450 c3 -5 8 -10 11 -10 2 0 4 5 4 10 0 6 -5 10 -11 10 -5 0
-7 -4 -4 -10z"/>
<path d="M4060 1424 c0 -8 5 -12 10 -9 6 3 10 10 10 16 0 5 -4 9 -10 9 -5 0
-10 -7 -10 -16z"/>
<path d="M4185 1419 c-10 -15 3 -25 16 -12 7 7 7 13 1 17 -6 3 -14 1 -17 -5z"/>
<path d="M2287 1402 c-23 -25 -21 -39 4 -52 29 -16 69 -4 69 19 0 11 6 21 13
24 18 6 7 14 -34 21 -28 5 -39 2 -52 -12z"/>
<path d="M2040 1400 c0 -5 5 -10 11 -10 5 0 7 5 4 10 -3 6 -8 10 -11 10 -2 0
-4 -4 -4 -10z"/>
<path d="M3745 1400 c3 -5 10 -10 16 -10 5 0 9 5 9 10 0 6 -7 10 -16 10 -8 0
-12 -4 -9 -10z"/>
<path d="M2790 1390 c0 -5 5 -10 10 -10 6 0 10 5 10 10 0 6 -4 10 -10 10 -5 0
-10 -4 -10 -10z"/>
<path d="M3630 1370 c0 -5 7 -10 15 -10 8 0 15 5 15 10 0 6 -7 10 -15 10 -8 0
-15 -4 -15 -10z"/>
<path d="M2240 1360 c0 -5 5 -10 10 -10 6 0 10 5 10 10 0 6 -4 10 -10 10 -5 0
-10 -4 -10 -10z"/>
<path d="M3930 1360 c0 -5 7 -10 15 -10 8 0 15 5 15 10 0 6 -7 10 -15 10 -8 0
-15 -4 -15 -10z"/>
<path d="M1873 1344 c-4 -11 1 -22 12 -30 23 -17 27 -17 50 0 16 12 17 16 6
30 -17 21 -60 21 -68 0z"/>
<path d="M1995 1350 c-3 -5 -1 -10 4 -10 6 0 11 5 11 10 0 6 -2 10 -4 10 -3 0
-8 -4 -11 -10z"/>
<path d="M3825 1350 c3 -5 10 -10 16 -10 5 0 9 5 9 10 0 6 -7 10 -16 10 -8 0
-12 -4 -9 -10z"/>
<path d="M4227 1354 c-8 -8 1 -24 14 -24 5 0 9 7 9 15 0 15 -12 20 -23 9z"/>
<path d="M2140 1335 c0 -9 -12 -18 -30 -21 -38 -8 -39 -24 -1 -24 34 0 77 31
67 48 -10 17 -36 15 -36 -3z"/>
<path d="M1217 1333 c-4 -3 -7 -12 -7 -20 0 -15 26 -18 34 -4 7 11 -18 33 -27
24z"/>
<path d="M2870 1325 c0 -9 5 -15 11 -13 6 2 11 8 11 13 0 5 -5 11 -11 13 -6 2
-11 -4 -11 -13z"/>
<path d="M3466 1333 c-11 -11 -6 -23 9 -23 8 0 15 4 15 9 0 13 -16 22 -24 14z"/>
<path d="M3550 1330 c0 -5 5 -10 10 -10 6 0 10 5 10 10 0 6 -4 10 -10 10 -5 0
-10 -4 -10 -10z"/>
<path d="M3686 1331 c-4 -7 -5 -15 -2 -18 9 -9 19 4 14 18 -4 11 -6 11 -12 0z"/>
<path d="M2330 1314 c0 -8 5 -12 10 -9 6 3 10 10 10 16 0 5 -4 9 -10 9 -5 0
-10 -7 -10 -16z"/>
<path d="M2455 1300 c3 -5 10 -10 16 -10 5 0 9 5 9 10 0 6 -7 10 -16 10 -8 0
-12 -4 -9 -10z"/>
<path d="M3831 1297 c-15 -15 -14 -44 3 -50 17 -7 36 11 36 34 0 21 -24 31
-39 16z"/>
<path d="M4010 1300 c0 -5 7 -10 15 -10 8 0 15 5 15 10 0 6 -7 10 -15 10 -8 0
-15 -4 -15 -10z"/>
<path d="M1942 1293 c-6 -2 -9 -9 -6 -14 3 -6 11 -5 20 2 12 10 16 8 21 -9 7
-28 23 -29 23 -2 0 11 -4 20 -9 20 -5 0 -15 2 -23 4 -7 3 -19 2 -26 -1z"/>
<path d="M4070 1280 c0 -5 5 -10 10 -10 6 0 10 5 10 10 0 6 -4 10 -10 10 -5 0
-10 -4 -10 -10z"/>
<path d="M2200 1250 c0 -5 5 -10 10 -10 6 0 10 5 10 10 0 6 -4 10 -10 10 -5 0
-10 -4 -10 -10z"/>
<path d="M1330 1229 c0 -5 5 -7 10 -4 6 3 10 8 10 11 0 2 -4 4 -10 4 -5 0 -10
-5 -10 -11z"/>
<path d="M2900 1206 c0 -9 7 -16 16 -16 17 0 14 22 -4 28 -7 2 -12 -3 -12 -12z"/>
<path d="M4030 1205 c0 -8 5 -15 10 -15 6 0 10 7 10 15 0 8 -4 15 -10 15 -5 0
-10 -7 -10 -15z"/>
<path d="M3040 1170 c0 -5 7 -10 15 -10 8 0 15 5 15 10 0 6 -7 10 -15 10 -8 0
-15 -4 -15 -10z"/>
<path d="M4152 1169 c2 -6 8 -10 13 -10 5 0 11 4 13 10 2 6 -4 11 -13 11 -9 0
-15 -5 -13 -11z"/>
<path d="M1750 1100 c0 -5 5 -10 10 -10 6 0 10 5 10 10 0 6 -4 10 -10 10 -5 0
-10 -4 -10 -10z"/>
</g>
</svg>
